<svg xmlns="http://www.w3.org/2000/svg" width="1146" height="558" viewBox="0 0 1146 558">
<path d="M 171,32 L 170,33 L 168,33 L 167,34 L 162,34 L 161,35 L 160,35 L 159,36 L 156,36 L 155,37 L 152,37 L 151,38 L 148,38 L 147,39 L 144,39 L 143,40 L 141,40 L 140,41 L 135,41 L 134,42 L 131,42 L 130,43 L 68,43 L 67,44 L 66,44 L 65,45 L 62,45 L 61,46 L 60,46 L 58,48 L 57,48 L 54,51 L 54,52 L 52,54 L 52,57 L 51,58 L 51,61 L 50,62 L 50,67 L 49,68 L 49,69 L 48,70 L 48,71 L 45,74 L 45,75 L 43,77 L 43,79 L 42,80 L 42,81 L 41,82 L 41,85 L 42,86 L 42,87 L 43,88 L 43,91 L 45,93 L 45,94 L 46,95 L 46,96 L 48,98 L 48,100 L 50,102 L 50,108 L 48,110 L 48,115 L 50,117 L 50,118 L 51,119 L 52,119 L 53,120 L 53,121 L 54,121 L 57,124 L 57,126 L 55,128 L 52,128 L 51,129 L 50,129 L 49,130 L 43,130 L 42,131 L 40,131 L 39,132 L 37,132 L 35,134 L 34,134 L 33,135 L 32,135 L 32,136 L 31,137 L 30,137 L 30,138 L 29,139 L 28,139 L 28,140 L 27,141 L 27,142 L 26,143 L 26,145 L 25,146 L 25,152 L 26,153 L 26,155 L 27,156 L 27,157 L 30,160 L 30,161 L 31,161 L 32,162 L 32,163 L 33,163 L 34,164 L 34,166 L 30,170 L 30,171 L 29,172 L 29,175 L 30,176 L 30,177 L 34,181 L 35,181 L 36,182 L 37,182 L 40,185 L 40,186 L 39,187 L 39,188 L 38,189 L 38,190 L 36,192 L 36,193 L 35,194 L 35,195 L 34,196 L 34,204 L 35,205 L 35,206 L 36,207 L 36,208 L 39,211 L 39,212 L 41,214 L 41,217 L 38,220 L 38,221 L 36,223 L 36,225 L 35,226 L 35,230 L 36,231 L 36,234 L 37,235 L 37,236 L 38,237 L 38,238 L 39,239 L 39,240 L 42,243 L 42,244 L 45,247 L 45,251 L 44,252 L 44,254 L 43,255 L 43,264 L 42,265 L 42,266 L 37,271 L 37,272 L 36,273 L 36,274 L 35,275 L 35,276 L 34,277 L 34,287 L 35,288 L 35,293 L 34,294 L 34,300 L 35,301 L 35,303 L 36,304 L 36,305 L 38,307 L 38,308 L 39,309 L 39,310 L 41,312 L 41,317 L 42,318 L 42,319 L 43,320 L 43,323 L 44,324 L 44,325 L 45,326 L 45,327 L 46,328 L 46,329 L 53,336 L 54,336 L 56,338 L 58,338 L 60,340 L 66,340 L 67,341 L 76,341 L 77,340 L 91,340 L 92,341 L 118,341 L 119,342 L 144,342 L 145,343 L 146,343 L 147,344 L 148,344 L 149,345 L 152,345 L 153,346 L 154,346 L 155,347 L 159,347 L 160,348 L 162,348 L 163,349 L 173,349 L 174,350 L 205,350 L 207,352 L 207,353 L 206,354 L 206,355 L 204,357 L 204,358 L 202,360 L 202,362 L 200,364 L 200,365 L 199,366 L 199,367 L 198,368 L 198,370 L 197,371 L 197,372 L 196,373 L 196,374 L 195,375 L 195,378 L 194,379 L 194,380 L 193,381 L 193,385 L 192,386 L 192,388 L 191,389 L 191,394 L 190,395 L 190,399 L 189,400 L 189,428 L 190,429 L 190,432 L 191,433 L 191,439 L 192,440 L 192,442 L 193,443 L 193,447 L 194,448 L 194,449 L 195,450 L 195,452 L 196,453 L 196,454 L 197,455 L 197,457 L 198,458 L 198,459 L 199,460 L 199,461 L 200,462 L 200,463 L 201,464 L 201,465 L 202,466 L 202,467 L 204,469 L 204,470 L 206,472 L 206,473 L 208,475 L 208,476 L 211,479 L 211,480 L 218,487 L 218,488 L 219,488 L 220,489 L 220,490 L 221,490 L 225,494 L 226,494 L 229,497 L 230,497 L 232,499 L 233,499 L 235,501 L 236,501 L 238,503 L 240,503 L 242,505 L 243,505 L 244,506 L 246,506 L 248,508 L 251,508 L 253,510 L 256,510 L 257,511 L 258,511 L 259,512 L 263,512 L 264,513 L 266,513 L 267,514 L 271,514 L 272,515 L 276,515 L 277,516 L 281,516 L 282,517 L 318,517 L 319,516 L 323,516 L 324,515 L 329,515 L 330,514 L 333,514 L 334,513 L 336,513 L 337,512 L 340,512 L 341,511 L 342,511 L 343,510 L 347,510 L 349,512 L 351,512 L 352,513 L 353,513 L 354,514 L 356,514 L 357,515 L 393,515 L 394,514 L 398,514 L 399,515 L 403,515 L 404,516 L 421,516 L 422,515 L 460,515 L 461,514 L 463,514 L 464,513 L 465,513 L 466,512 L 467,512 L 469,510 L 470,510 L 470,509 L 473,506 L 473,505 L 474,504 L 474,503 L 475,502 L 475,497 L 476,496 L 476,495 L 477,494 L 479,494 L 480,495 L 480,496 L 481,497 L 481,499 L 483,501 L 483,502 L 484,503 L 484,504 L 486,506 L 486,507 L 489,510 L 490,510 L 492,512 L 494,512 L 495,513 L 496,513 L 497,514 L 501,514 L 502,515 L 564,515 L 565,514 L 571,514 L 572,515 L 625,515 L 626,514 L 629,514 L 630,513 L 635,513 L 636,514 L 640,514 L 641,515 L 695,515 L 696,514 L 699,514 L 700,513 L 701,513 L 702,512 L 703,512 L 704,511 L 705,511 L 709,507 L 709,506 L 711,504 L 711,503 L 712,502 L 712,500 L 713,499 L 713,496 L 714,495 L 714,480 L 713,479 L 714,478 L 714,477 L 713,476 L 713,474 L 715,472 L 716,472 L 718,474 L 718,475 L 721,478 L 721,479 L 725,483 L 725,484 L 730,489 L 730,490 L 734,494 L 734,495 L 738,499 L 738,500 L 741,503 L 741,504 L 747,510 L 748,510 L 750,512 L 751,512 L 752,513 L 753,513 L 754,514 L 757,514 L 758,515 L 805,515 L 806,514 L 809,514 L 810,513 L 811,514 L 815,514 L 816,515 L 903,515 L 904,514 L 915,514 L 916,513 L 921,513 L 922,512 L 928,512 L 929,511 L 931,511 L 932,510 L 937,510 L 938,509 L 939,509 L 940,508 L 943,508 L 944,507 L 945,507 L 946,506 L 948,506 L 949,505 L 950,505 L 951,504 L 952,504 L 953,503 L 955,503 L 957,501 L 959,501 L 961,499 L 962,499 L 964,497 L 965,497 L 966,496 L 967,496 L 969,494 L 970,494 L 972,492 L 973,492 L 973,491 L 974,490 L 975,490 L 986,479 L 986,478 L 989,475 L 989,474 L 993,470 L 993,468 L 995,466 L 995,465 L 996,464 L 996,463 L 997,462 L 997,461 L 998,460 L 998,459 L 999,458 L 999,457 L 1000,456 L 1000,454 L 1002,452 L 1002,449 L 1003,448 L 1003,446 L 1004,445 L 1004,442 L 1005,441 L 1005,438 L 1006,437 L 1006,432 L 1007,431 L 1007,422 L 1008,421 L 1008,408 L 1007,407 L 1007,396 L 1006,395 L 1006,389 L 1005,388 L 1005,385 L 1004,384 L 1004,381 L 1003,380 L 1003,378 L 1002,377 L 1002,374 L 1000,372 L 1000,369 L 998,367 L 998,365 L 997,364 L 997,363 L 996,362 L 996,361 L 995,360 L 995,359 L 993,357 L 993,356 L 992,355 L 992,354 L 991,353 L 991,352 L 990,352 L 989,351 L 989,350 L 987,348 L 987,347 L 984,344 L 984,343 L 983,343 L 982,342 L 982,341 L 981,341 L 980,340 L 980,339 L 979,338 L 978,338 L 977,337 L 977,336 L 976,336 L 975,335 L 975,334 L 974,334 L 971,331 L 970,331 L 969,330 L 969,329 L 968,329 L 966,327 L 965,327 L 963,325 L 962,325 L 961,324 L 960,324 L 959,323 L 958,323 L 956,321 L 956,320 L 958,318 L 1004,318 L 1005,317 L 1006,317 L 1007,316 L 1008,316 L 1013,311 L 1013,310 L 1014,309 L 1014,308 L 1015,307 L 1015,305 L 1016,304 L 1016,200 L 1017,199 L 1017,198 L 1020,195 L 1020,194 L 1022,192 L 1022,191 L 1024,189 L 1024,188 L 1026,186 L 1026,185 L 1027,184 L 1027,183 L 1029,181 L 1029,180 L 1032,177 L 1032,176 L 1034,174 L 1034,173 L 1036,171 L 1036,170 L 1038,168 L 1038,167 L 1040,165 L 1040,164 L 1042,162 L 1042,161 L 1045,158 L 1045,157 L 1047,155 L 1047,154 L 1049,152 L 1049,151 L 1051,149 L 1051,148 L 1053,146 L 1053,145 L 1055,143 L 1055,142 L 1058,139 L 1058,138 L 1059,137 L 1059,136 L 1061,134 L 1061,133 L 1063,131 L 1063,130 L 1065,128 L 1065,127 L 1067,125 L 1067,124 L 1068,123 L 1069,123 L 1069,122 L 1070,121 L 1070,120 L 1072,118 L 1072,117 L 1074,115 L 1074,114 L 1076,112 L 1076,111 L 1078,109 L 1078,108 L 1080,106 L 1080,105 L 1082,103 L 1082,102 L 1085,99 L 1085,98 L 1087,96 L 1087,95 L 1089,93 L 1089,92 L 1091,90 L 1091,89 L 1092,88 L 1092,87 L 1094,85 L 1094,84 L 1095,83 L 1096,83 L 1096,81 L 1099,78 L 1099,77 L 1101,75 L 1101,74 L 1103,72 L 1103,71 L 1105,69 L 1105,68 L 1108,65 L 1108,64 L 1109,63 L 1109,62 L 1111,60 L 1111,59 L 1112,58 L 1112,46 L 1111,45 L 1111,44 L 1109,42 L 1109,41 L 1107,39 L 1106,39 L 1105,38 L 1103,38 L 1102,37 L 999,37 L 998,38 L 997,38 L 996,39 L 995,39 L 993,41 L 992,41 L 991,42 L 991,43 L 989,45 L 989,46 L 987,48 L 987,49 L 984,52 L 984,53 L 983,54 L 983,55 L 982,56 L 982,57 L 980,59 L 980,60 L 978,62 L 978,63 L 976,65 L 976,66 L 975,67 L 975,68 L 973,70 L 973,71 L 971,73 L 971,74 L 969,76 L 969,77 L 967,79 L 967,80 L 966,81 L 966,82 L 964,84 L 964,85 L 962,87 L 962,89 L 961,90 L 960,90 L 960,92 L 959,93 L 958,93 L 957,94 L 953,90 L 953,88 L 951,86 L 951,85 L 949,83 L 949,82 L 947,80 L 947,79 L 946,78 L 946,77 L 944,75 L 944,74 L 942,72 L 942,71 L 940,69 L 940,68 L 939,67 L 939,66 L 937,64 L 937,63 L 936,62 L 936,61 L 935,60 L 935,59 L 933,57 L 933,56 L 931,54 L 931,53 L 930,52 L 930,51 L 928,49 L 928,48 L 926,46 L 926,45 L 924,43 L 924,42 L 922,40 L 921,40 L 919,38 L 917,38 L 916,37 L 811,37 L 810,38 L 808,38 L 807,39 L 806,39 L 801,44 L 801,46 L 800,47 L 800,49 L 799,50 L 799,54 L 800,55 L 800,57 L 801,58 L 801,60 L 802,61 L 802,62 L 803,63 L 803,64 L 805,66 L 805,67 L 808,70 L 808,71 L 810,73 L 810,74 L 812,76 L 812,77 L 814,79 L 814,80 L 816,82 L 816,83 L 817,84 L 817,85 L 819,87 L 819,88 L 822,91 L 822,92 L 824,94 L 824,95 L 826,97 L 826,98 L 828,100 L 828,101 L 830,103 L 830,104 L 832,106 L 832,107 L 835,110 L 835,111 L 837,113 L 837,114 L 839,116 L 839,117 L 841,119 L 841,120 L 843,122 L 843,123 L 846,126 L 846,127 L 848,129 L 848,130 L 850,132 L 850,133 L 852,135 L 852,136 L 854,138 L 854,139 L 855,140 L 855,141 L 857,143 L 857,144 L 860,147 L 860,148 L 862,150 L 862,151 L 864,153 L 864,154 L 866,156 L 866,157 L 868,159 L 868,160 L 871,163 L 871,164 L 873,166 L 873,167 L 875,169 L 875,170 L 877,172 L 877,173 L 880,176 L 880,177 L 882,179 L 882,180 L 884,182 L 884,183 L 886,185 L 886,186 L 889,189 L 889,190 L 891,192 L 891,193 L 893,195 L 893,196 L 895,198 L 895,199 L 898,202 L 898,203 L 899,204 L 899,217 L 897,219 L 794,219 L 792,217 L 792,51 L 791,50 L 791,48 L 790,47 L 790,45 L 788,43 L 788,42 L 785,39 L 784,39 L 783,38 L 782,38 L 781,37 L 683,37 L 682,38 L 681,38 L 680,39 L 679,39 L 677,41 L 676,41 L 676,42 L 673,45 L 671,45 L 669,43 L 669,42 L 668,41 L 667,41 L 665,39 L 664,39 L 663,38 L 661,38 L 660,37 L 571,37 L 570,38 L 568,38 L 567,39 L 566,39 L 565,40 L 564,40 L 561,43 L 561,44 L 560,45 L 560,46 L 559,47 L 559,48 L 558,49 L 558,79 L 559,80 L 559,104 L 560,105 L 560,147 L 561,148 L 561,168 L 562,169 L 562,172 L 560,174 L 559,174 L 557,172 L 557,170 L 556,169 L 556,168 L 555,167 L 555,165 L 553,163 L 553,160 L 552,159 L 552,158 L 551,157 L 551,156 L 550,155 L 550,153 L 549,152 L 549,151 L 548,150 L 548,148 L 547,147 L 547,146 L 546,145 L 546,143 L 544,141 L 544,139 L 543,138 L 543,137 L 542,136 L 542,134 L 541,133 L 541,132 L 540,131 L 540,129 L 539,128 L 539,126 L 538,125 L 538,124 L 537,123 L 537,121 L 535,119 L 535,116 L 534,115 L 534,114 L 533,113 L 533,111 L 532,110 L 532,109 L 531,108 L 531,106 L 530,105 L 530,104 L 529,103 L 529,102 L 528,101 L 528,98 L 526,96 L 526,93 L 524,91 L 524,89 L 523,88 L 523,87 L 522,86 L 522,84 L 521,83 L 521,81 L 520,80 L 520,79 L 519,78 L 519,76 L 517,74 L 517,71 L 515,69 L 515,66 L 514,65 L 514,64 L 513,63 L 513,61 L 512,60 L 512,59 L 511,58 L 511,57 L 510,56 L 510,54 L 509,53 L 509,52 L 508,51 L 508,49 L 507,48 L 507,47 L 506,46 L 506,45 L 504,43 L 504,42 L 503,41 L 502,41 L 500,39 L 499,39 L 498,38 L 496,38 L 495,37 L 410,37 L 409,38 L 406,38 L 405,39 L 404,39 L 402,41 L 401,41 L 401,42 L 399,44 L 399,45 L 398,46 L 398,47 L 397,48 L 397,50 L 396,51 L 396,54 L 395,55 L 395,56 L 394,57 L 394,61 L 392,63 L 392,67 L 391,68 L 391,69 L 390,70 L 390,73 L 389,74 L 389,76 L 388,77 L 388,79 L 387,80 L 387,83 L 386,84 L 386,85 L 385,86 L 385,90 L 384,91 L 384,92 L 383,93 L 383,96 L 382,97 L 382,98 L 381,99 L 381,103 L 380,104 L 380,105 L 379,106 L 379,109 L 378,110 L 378,112 L 376,114 L 375,114 L 373,112 L 373,110 L 372,109 L 372,107 L 371,106 L 371,105 L 370,104 L 370,102 L 369,101 L 369,99 L 367,97 L 367,95 L 365,93 L 365,92 L 364,91 L 364,90 L 363,89 L 363,88 L 360,85 L 360,84 L 358,82 L 358,81 L 357,81 L 356,80 L 356,79 L 351,74 L 350,74 L 349,73 L 349,72 L 348,72 L 345,69 L 344,69 L 340,65 L 339,65 L 337,63 L 335,63 L 333,61 L 332,61 L 331,60 L 330,60 L 329,59 L 328,59 L 327,58 L 326,58 L 325,57 L 324,57 L 323,56 L 322,56 L 321,55 L 320,55 L 319,54 L 317,54 L 316,53 L 315,53 L 314,52 L 311,52 L 309,50 L 306,50 L 305,49 L 303,49 L 302,48 L 299,48 L 298,47 L 295,47 L 294,46 L 292,46 L 291,45 L 285,45 L 284,44 L 281,44 L 280,43 L 267,43 L 266,42 L 250,42 L 249,41 L 242,41 L 241,40 L 240,40 L 239,39 L 237,39 L 236,38 L 234,38 L 233,37 L 231,37 L 230,36 L 228,36 L 227,35 L 225,35 L 224,34 L 218,34 L 217,33 L 215,33 L 214,32 Z" fill="white"/>
</svg>